<svg width="32" height="32" viewBox="0 0 32 32" fill="none" xmlns="http://www.w3.org/2000/svg">
  <rect width="32" height="32" rx="4" fill="#3B82F6"/>
  <path d="M8 12C8 10.8954 8.89543 10 10 10H22C23.1046 10 24 10.8954 24 12V22C24 23.1046 23.1046 24 22 24H10C8.89543 24 8 23.1046 8 22V12Z" fill="white"/>
  <path d="M10 8C10 6.89543 10.8954 6 12 6H20C21.1046 6 22 6.89543 22 8V10H10V8Z" fill="white"/>
  <circle cx="12" cy="26" r="2" fill="white"/>
  <circle cx="20" cy="26" r="2" fill="white"/>
  <path d="M12 14H20M12 18H18" stroke="#3B82F6" stroke-width="1.5" stroke-linecap="round"/>
</svg>
